<svg width="80" height="80" fill="none" xmlns="http://www.w3.org/2000/svg"><path d="M46.25 7.5h-12.5l-2.5-5h17.5l-2.5 5z" fill="#9B7B70"/><path d="M56.25 1.25h-32.5A6.257 6.257 0 0017.5 7.5v65a6.257 6.257 0 006.25 6.25h32.5a6.257 6.257 0 006.25-6.25v-65a6.258 6.258 0 00-6.25-6.25zm-9.523 2.5l-1.25 2.5H34.523l-1.25-2.5h13.454zM60 72.5a3.75 3.75 0 01-3.75 3.75h-32.5A3.75 3.75 0 0120 72.5v-65a3.75 3.75 0 013.75-3.75h6.727l2.154 4.309a1.25 1.25 0 001.119.691h12.5a1.25 1.25 0 001.125-.691l2.148-4.309h6.727A3.75 3.75 0 0160 7.5v65z" fill="#79665E"/><path d="M29.758 43.997h19.853a5.515 5.515 0 00.971-10.941 9.375 9.375 0 00-18.541.409 5.436 5.436 0 00-2.283-.5 5.515 5.515 0 000 11.03v.002z" fill="#9B7B70"/><path d="M51.644 32.03a10.624 10.624 0 00-20.559-.183 6.766 6.766 0 10-1.326 13.4h4.926a1.25 1.25 0 100-2.5h-4.926a4.265 4.265 0 110-8.529 4.186 4.186 0 011.76.376 1.25 1.25 0 001.763-.986 8.125 8.125 0 0116.068-.348c.088.521.495.93 1.016 1.022a4.265 4.265 0 01.082 8.376 3.93 3.93 0 01-.837.08h-4.926a1.25 1.25 0 000 2.5h4.926c.454.004.906-.041 1.35-.133a6.766 6.766 0 00.683-13.084v.008z" fill="#79665E"/><path d="M45.154 49.271l-4.22 3.375V38.997a1.25 1.25 0 10-2.5 0v13.649l-4.218-3.375a1.25 1.25 0 00-1.563 1.952l6.25 5c.055.037.113.068.173.095.04.026.082.05.125.073.152.068.317.104.484.106.167-.004.332-.041.485-.11.017-.008.038 0 .056-.014.055-.03.106-.065.155-.104a.673.673 0 00.085-.046l6.25-5a1.25 1.25 0 00-1.563-1.952zM32.5 72.5h-10a1.25 1.25 0 000 2.5h10a1.25 1.25 0 000-2.5zm5 0h-1.25a1.25 1.25 0 000 2.5h1.25a1.25 1.25 0 000-2.5z" fill="#79665E"/></svg>