<svg width="80" height="80" fill="none" xmlns="http://www.w3.org/2000/svg"><path d="M46.25 7.5h-12.5l-2.5-5h17.5l-2.5 5z" fill="#9B7B70"/><path d="M56.25 1.25h-32.5A6.257 6.257 0 0017.5 7.5v65a6.257 6.257 0 006.25 6.25h32.5a6.257 6.257 0 006.25-6.25v-65a6.258 6.258 0 00-6.25-6.25zm-9.523 2.5l-1.25 2.5H34.523l-1.25-2.5h13.454zM60 72.5a3.75 3.75 0 01-3.75 3.75h-32.5A3.75 3.75 0 0120 72.5v-65a3.75 3.75 0 013.75-3.75h6.727l2.154 4.309a1.25 1.25 0 001.119.691h12.5a1.25 1.25 0 001.125-.691l2.148-4.309h6.727A3.75 3.75 0 0160 7.5v65z" fill="#79665E"/><path d="M32.5 72.5h-10a1.25 1.25 0 000 2.5h10a1.25 1.25 0 000-2.5zm5 0h-1.25a1.25 1.25 0 000 2.5h1.25a1.25 1.25 0 000-2.5z" fill="#79665E"/><path d="M41.25 15.5A11.251 11.251 0 0030 26.75C30 32.962 41.25 43 41.25 43S52.5 32.962 52.5 26.75A11.251 11.251 0 0041.25 15.5zm0 12.5a2.5 2.5 0 110-5 2.5 2.5 0 010 5z" fill="#9B7B70"/><path d="M40.168 43.683a1.25 1.25 0 001.664 0 68.178 68.178 0 005.743-5.915C51.506 33.174 53.5 29.383 53.5 26.5a12.5 12.5 0 00-25 0c0 2.883 1.994 6.674 5.925 11.268a68.178 68.178 0 005.743 5.915zM41 16.5a10.011 10.011 0 0110 10c0 4.252-6.588 11.337-10 14.553-3.412-3.215-10-10.3-10-14.553a10.011 10.011 0 0110-10z" fill="#79665E"/><path d="M44.75 25.25a3.75 3.75 0 10-7.5 0 3.75 3.75 0 007.5 0zm-5 0a1.25 1.25 0 112.5 0 1.25 1.25 0 01-2.5 0zM53.5 54h-25v-3.75H41A1.25 1.25 0 0042.25 49v-2.5a1.25 1.25 0 00-2.5 0v1.25h-12.5A1.25 1.25 0 0026 49v6.25a1.25 1.25 0 001.25 1.25h25V59H36a1.25 1.25 0 00-1.25 1.25V66a1.25 1.25 0 002.5 0v-4.5H53.5a1.25 1.25 0 001.25-1.25v-5A1.25 1.25 0 0053.5 54z" fill="#79665E"/></svg>