<svg width="80" height="80" fill="none" xmlns="http://www.w3.org/2000/svg"><path d="M46.25 7.5h-12.5l-2.5-5h17.5l-2.5 5zm-10 45h7.5v3.75h-7.5V52.5zm-12.5-3.75h7.5v3.75h-7.5v-3.75zm25 6.25h7.5v3.75h-7.5V55zm-25-20h32.5v5h-32.5v-5zM40 30a7.5 7.5 0 100-15 7.5 7.5 0 000 15z" fill="#9B7B70"/><path d="M56.25 1.25h-32.5A6.257 6.257 0 0017.5 7.5v65a6.257 6.257 0 006.25 6.25h32.5a6.257 6.257 0 006.25-6.25v-65a6.258 6.258 0 00-6.25-6.25zm-9.523 2.5l-1.25 2.5H34.523l-1.25-2.5h13.454zM60 72.5a3.75 3.75 0 01-3.75 3.75h-32.5A3.75 3.75 0 0120 72.5v-65a3.75 3.75 0 013.75-3.75h6.727l2.154 4.309a1.25 1.25 0 001.119.691h12.5a1.25 1.25 0 001.125-.691l2.148-4.309h6.727A3.75 3.75 0 0160 7.5v65z" fill="#79665E"/><path d="M32.5 72.5h-10a1.25 1.25 0 000 2.5h10a1.25 1.25 0 000-2.5zm5 0h-1.25a1.25 1.25 0 000 2.5h1.25a1.25 1.25 0 000-2.5zm6.25-21.25h-2.5V45a1.25 1.25 0 00-2.5 0v6.25h-2.5A1.25 1.25 0 0035 52.5v3.75a1.25 1.25 0 001.25 1.25h2.5v5a1.25 1.25 0 002.5 0v-5h2.5A1.25 1.25 0 0045 56.25V52.5a1.25 1.25 0 00-1.25-1.25zM42.5 55h-5v-1.25h5V55zm-18.75-1.25h2.5v8.75a1.25 1.25 0 002.5 0v-8.75h2.5a1.25 1.25 0 001.25-1.25v-3.75a1.25 1.25 0 00-1.25-1.25h-2.5V45a1.25 1.25 0 00-2.5 0v2.5h-2.5a1.25 1.25 0 00-1.25 1.25v3.75a1.25 1.25 0 001.25 1.25zM25 50h5v1.25h-5V50zm31.25 3.75h-2.5V45a1.25 1.25 0 00-2.5 0v8.75h-2.5A1.25 1.25 0 0047.5 55v3.75A1.25 1.25 0 0048.75 60h2.5v2.5a1.25 1.25 0 002.5 0V60h2.5a1.25 1.25 0 001.25-1.25V55a1.25 1.25 0 00-1.25-1.25zM55 57.5h-5v-1.25h5v1.25zm1.25-23.75h-32.5A1.25 1.25 0 0022.5 35v5a1.25 1.25 0 001.25 1.25h32.5A1.25 1.25 0 0057.5 40v-5a1.25 1.25 0 00-1.25-1.25zm-1.25 5H25v-2.5h30v2.5zm-15-7.5a8.75 8.75 0 10-8.75-8.75A8.76 8.76 0 0040 31.25zm0-15a6.21 6.21 0 013.441 1.041l-1.825 1.825a1.25 1.25 0 101.768 1.768l1.825-1.825A6.25 6.25 0 1140 16.25z" fill="#79665E"/></svg>