<svg width="80" height="80" viewBox="0 0 80 80" fill="none" xmlns="http://www.w3.org/2000/svg">
<path d="M46.25 7.5H33.75L31.25 2.5H48.75L46.25 7.5Z" fill="#9B7B70"/>
<path d="M36.25 52.5H43.75V56.25H36.25V52.5Z" fill="#9B7B70"/>
<path d="M23.75 48.75H31.25V52.5H23.75V48.75Z" fill="#9B7B70"/>
<path d="M48.75 55H56.25V58.75H48.75V55Z" fill="#9B7B70"/>
<path d="M23.75 35H56.25V40H23.75V35Z" fill="#9B7B70"/>
<path d="M40 30C44.1421 30 47.5 26.6421 47.5 22.5C47.5 18.3579 44.1421 15 40 15C35.8579 15 32.5 18.3579 32.5 22.5C32.5 26.6421 35.8579 30 40 30Z" fill="#9B7B70"/>
<path d="M56.25 1.25H23.75C22.093 1.25198 20.5044 1.9111 19.3328 3.08277C18.1611 4.25445 17.502 5.84301 17.5 7.5V72.5C17.502 74.157 18.1611 75.7456 19.3328 76.9172C20.5044 78.0889 22.093 78.748 23.75 78.75H56.25C57.907 78.748 59.4956 78.0889 60.6672 76.9172C61.8389 75.7456 62.498 74.157 62.5 72.5V7.5C62.498 5.84301 61.8389 4.25445 60.6672 3.08277C59.4956 1.9111 57.907 1.25198 56.25 1.25ZM46.7275 3.75L45.4775 6.25H34.5225L33.2725 3.75H46.7275ZM60 72.5C60 73.4946 59.6049 74.4484 58.9016 75.1516C58.1984 75.8549 57.2446 76.25 56.25 76.25H23.75C22.7554 76.25 21.8016 75.8549 21.0983 75.1516C20.3951 74.4484 20 73.4946 20 72.5V7.5C20 6.50544 20.3951 5.55161 21.0983 4.84835C21.8016 4.14509 22.7554 3.75 23.75 3.75H30.4775L32.6312 8.05875C32.7351 8.26654 32.8948 8.44129 33.0924 8.56339C33.29 8.68549 33.5177 8.75011 33.75 8.75H46.25C46.4834 8.75127 46.7124 8.6872 46.9112 8.56504C47.11 8.44287 47.2707 8.26749 47.375 8.05875L49.5225 3.75H56.25C57.2446 3.75 58.1984 4.14509 58.9016 4.84835C59.6049 5.55161 60 6.50544 60 7.5V72.5Z" fill="#79665E"/>
<path d="M32.5 72.5H22.5C22.1685 72.5 21.8505 72.6317 21.6161 72.8661C21.3817 73.1005 21.25 73.4185 21.25 73.75C21.25 74.0815 21.3817 74.3995 21.6161 74.6339C21.8505 74.8683 22.1685 75 22.5 75H32.5C32.8315 75 33.1495 74.8683 33.3839 74.6339C33.6183 74.3995 33.75 74.0815 33.75 73.75C33.75 73.4185 33.6183 73.1005 33.3839 72.8661C33.1495 72.6317 32.8315 72.5 32.5 72.5Z" fill="#79665E"/>
<path d="M37.5 72.5H36.25C35.9185 72.5 35.6005 72.6317 35.3661 72.8661C35.1317 73.1005 35 73.4185 35 73.75C35 74.0815 35.1317 74.3995 35.3661 74.6339C35.6005 74.8683 35.9185 75 36.25 75H37.5C37.8315 75 38.1495 74.8683 38.3839 74.6339C38.6183 74.3995 38.75 74.0815 38.75 73.75C38.75 73.4185 38.6183 73.1005 38.3839 72.8661C38.1495 72.6317 37.8315 72.5 37.5 72.5Z" fill="#79665E"/>
<path d="M43.75 51.25H41.25V45C41.25 44.6685 41.1183 44.3505 40.8839 44.1161C40.6495 43.8817 40.3315 43.75 40 43.75C39.6685 43.75 39.3505 43.8817 39.1161 44.1161C38.8817 44.3505 38.75 44.6685 38.75 45V51.25H36.25C35.9185 51.25 35.6005 51.3817 35.3661 51.6161C35.1317 51.8505 35 52.1685 35 52.5V56.25C35 56.5815 35.1317 56.8995 35.3661 57.1339C35.6005 57.3683 35.9185 57.5 36.25 57.5H38.75V62.5C38.75 62.8315 38.8817 63.1495 39.1161 63.3839C39.3505 63.6183 39.6685 63.75 40 63.75C40.3315 63.75 40.6495 63.6183 40.8839 63.3839C41.1183 63.1495 41.25 62.8315 41.25 62.5V57.5H43.75C44.0815 57.5 44.3995 57.3683 44.6339 57.1339C44.8683 56.8995 45 56.5815 45 56.25V52.5C45 52.1685 44.8683 51.8505 44.6339 51.6161C44.3995 51.3817 44.0815 51.25 43.75 51.25ZM42.5 55H37.5V53.75H42.5V55Z" fill="#79665E"/>
<path d="M23.75 53.75H26.25V62.5C26.25 62.8315 26.3817 63.1495 26.6161 63.3839C26.8505 63.6183 27.1685 63.75 27.5 63.75C27.8315 63.75 28.1495 63.6183 28.3839 63.3839C28.6183 63.1495 28.75 62.8315 28.75 62.5V53.75H31.25C31.5815 53.75 31.8995 53.6183 32.1339 53.3839C32.3683 53.1495 32.5 52.8315 32.5 52.5V48.75C32.5 48.4185 32.3683 48.1005 32.1339 47.8661C31.8995 47.6317 31.5815 47.5 31.25 47.5H28.75V45C28.75 44.6685 28.6183 44.3505 28.3839 44.1161C28.1495 43.8817 27.8315 43.75 27.5 43.75C27.1685 43.75 26.8505 43.8817 26.6161 44.1161C26.3817 44.3505 26.25 44.6685 26.25 45V47.5H23.75C23.4185 47.5 23.1005 47.6317 22.8661 47.8661C22.6317 48.1005 22.5 48.4185 22.5 48.75V52.5C22.5 52.8315 22.6317 53.1495 22.8661 53.3839C23.1005 53.6183 23.4185 53.75 23.75 53.75ZM25 50H30V51.25H25V50Z" fill="#79665E"/>
<path d="M56.25 53.75H53.75V45C53.75 44.6685 53.6183 44.3505 53.3839 44.1161C53.1495 43.8817 52.8315 43.75 52.5 43.75C52.1685 43.75 51.8505 43.8817 51.6161 44.1161C51.3817 44.3505 51.25 44.6685 51.25 45V53.75H48.75C48.4185 53.75 48.1005 53.8817 47.8661 54.1161C47.6317 54.3505 47.5 54.6685 47.5 55V58.75C47.5 59.0815 47.6317 59.3995 47.8661 59.6339C48.1005 59.8683 48.4185 60 48.75 60H51.25V62.5C51.25 62.8315 51.3817 63.1495 51.6161 63.3839C51.8505 63.6183 52.1685 63.75 52.5 63.75C52.8315 63.75 53.1495 63.6183 53.3839 63.3839C53.6183 63.1495 53.75 62.8315 53.75 62.5V60H56.25C56.5815 60 56.8995 59.8683 57.1339 59.6339C57.3683 59.3995 57.5 59.0815 57.5 58.75V55C57.5 54.6685 57.3683 54.3505 57.1339 54.1161C56.8995 53.8817 56.5815 53.75 56.25 53.75ZM55 57.5H50V56.25H55V57.5Z" fill="#79665E"/>
<path d="M56.25 33.75H23.75C23.4185 33.75 23.1005 33.8817 22.8661 34.1161C22.6317 34.3505 22.5 34.6685 22.5 35V40C22.5 40.3315 22.6317 40.6495 22.8661 40.8839C23.1005 41.1183 23.4185 41.25 23.75 41.25H56.25C56.5815 41.25 56.8995 41.1183 57.1339 40.8839C57.3683 40.6495 57.5 40.3315 57.5 40V35C57.5 34.6685 57.3683 34.3505 57.1339 34.1161C56.8995 33.8817 56.5815 33.75 56.25 33.75ZM55 38.75H25V36.25H55V38.75Z" fill="#79665E"/>
<path d="M40 31.25C41.7306 31.25 43.4223 30.7368 44.8612 29.7754C46.3002 28.8139 47.4217 27.4473 48.0839 25.8485C48.7462 24.2496 48.9195 22.4903 48.5819 20.793C48.2442 19.0956 47.4109 17.5365 46.1872 16.3128C44.9635 15.0891 43.4044 14.2558 41.707 13.9181C40.0097 13.5805 38.2504 13.7538 36.6515 14.4161C35.0527 15.0783 33.6861 16.1998 32.7246 17.6388C31.7632 19.0777 31.25 20.7694 31.25 22.5C31.2526 24.8198 32.1754 27.0439 33.8157 28.6843C35.4561 30.3246 37.6802 31.2474 40 31.25ZM40 16.25C41.2246 16.2502 42.4219 16.6125 43.4412 17.2913L41.6162 19.1163C41.4969 19.2316 41.4016 19.3695 41.3361 19.522C41.2706 19.6745 41.2361 19.8385 41.2347 20.0045C41.2332 20.1705 41.2649 20.3351 41.3277 20.4887C41.3906 20.6423 41.4834 20.7819 41.6008 20.8992C41.7181 21.0166 41.8577 21.1094 42.0113 21.1723C42.1649 21.2351 42.3295 21.2668 42.4955 21.2653C42.6615 21.2639 42.8255 21.2294 42.978 21.1639C43.1305 21.0984 43.2684 21.0031 43.3837 20.8838L45.2087 19.0588C45.9752 20.2209 46.3318 21.6056 46.2219 22.9934C46.112 24.3812 45.542 25.6925 44.6021 26.7195C43.6623 27.7465 42.4064 28.4303 41.0338 28.6625C39.6612 28.8946 38.2503 28.6619 37.025 28.0012C35.7997 27.3404 34.83 26.2895 34.2698 25.0151C33.7096 23.7406 33.5909 22.3156 33.9326 20.9661C34.2742 19.6166 35.0567 18.4197 36.1558 17.5654C37.255 16.711 38.6079 16.2481 40 16.25Z" fill="#79665E"/>
</svg>
