<svg width="80" height="80" viewBox="0 0 80 80" fill="none" xmlns="http://www.w3.org/2000/svg">
<path d="M46.25 7.5H33.75L31.25 2.5H48.75L46.25 7.5Z" fill="#9B7B70"/>
<path d="M56.25 1.25H23.75C22.093 1.25198 20.5044 1.9111 19.3328 3.08277C18.1611 4.25445 17.502 5.84301 17.5 7.5V72.5C17.502 74.157 18.1611 75.7456 19.3328 76.9172C20.5044 78.0889 22.093 78.748 23.75 78.75H56.25C57.907 78.748 59.4956 78.0889 60.6672 76.9172C61.8389 75.7456 62.498 74.157 62.5 72.5V7.5C62.498 5.84301 61.8389 4.25445 60.6672 3.08277C59.4956 1.9111 57.907 1.25198 56.25 1.25ZM46.7275 3.75L45.4775 6.25H34.5225L33.2725 3.75H46.7275ZM60 72.5C60 73.4946 59.6049 74.4484 58.9016 75.1516C58.1984 75.8549 57.2446 76.25 56.25 76.25H23.75C22.7554 76.25 21.8016 75.8549 21.0983 75.1516C20.3951 74.4484 20 73.4946 20 72.5V7.5C20 6.50544 20.3951 5.55161 21.0983 4.84835C21.8016 4.14509 22.7554 3.75 23.75 3.75H30.4775L32.6312 8.05875C32.7351 8.26654 32.8948 8.44129 33.0924 8.56339C33.29 8.68549 33.5177 8.75011 33.75 8.75H46.25C46.4834 8.75127 46.7124 8.6872 46.9112 8.56504C47.11 8.44287 47.2707 8.26749 47.375 8.05875L49.5225 3.75H56.25C57.2446 3.75 58.1984 4.14509 58.9016 4.84835C59.6049 5.55161 60 6.50544 60 7.5V72.5Z" fill="#79665E"/>
<path d="M29.7583 43.9968H49.6105C49.9816 43.9999 50.3514 43.9626 50.7146 43.887C53.3055 43.3566 55.1549 41.061 55.1225 38.4164C55.0902 35.7717 53.1853 33.5226 50.5815 33.0557C49.7972 28.4774 45.7787 25.1644 41.1352 25.267C36.4916 25.3695 32.6226 28.8564 32.0404 33.4646C31.325 33.1344 30.5462 32.9635 29.7583 32.9641C26.7126 32.9641 24.2432 35.4336 24.2432 38.4792C24.2432 41.5249 26.7126 43.9944 29.7583 43.9944V43.9968Z" fill="#9B7B70"/>
<path d="M51.6435 32.0295C50.4631 27.3427 46.2681 24.0431 41.4348 24.0004C36.6014 23.9577 32.3485 27.1822 31.085 31.8471C28.5594 31.3447 25.9678 32.3201 24.3992 34.3623C22.8312 36.4045 22.5584 39.1602 23.6955 41.4704C24.8332 43.7806 27.1837 45.2448 29.7587 45.2472H34.6849C35.3752 45.2472 35.9349 44.6876 35.9349 43.9973C35.9349 43.3069 35.3752 42.7473 34.6849 42.7473H29.7587C28.2176 42.7735 26.7827 41.9666 26.0045 40.6367C25.2263 39.3061 25.2263 37.6594 26.0045 36.3295C26.7827 34.9989 28.2176 34.192 29.7587 34.2183C30.3654 34.2146 30.966 34.3422 31.5184 34.5936C31.8815 34.7609 32.3021 34.7444 32.6512 34.5497C32.9997 34.355 33.2341 34.0052 33.2823 33.6085C33.7907 29.6175 37.1434 26.5999 41.1656 26.5126C45.1884 26.4253 48.6686 29.2946 49.3498 33.26C49.4383 33.7812 49.8454 34.1908 50.366 34.2823C52.3765 34.6498 53.8438 36.3923 53.864 38.4358C53.8841 40.4792 52.4516 42.2504 50.4484 42.6575C50.1732 42.7143 49.8924 42.7418 49.611 42.7387H44.6849C43.9946 42.7387 43.4349 43.2984 43.4349 43.9887C43.4349 44.679 43.9946 45.2387 44.6849 45.2387H49.611C50.0645 45.2418 50.5168 45.1966 50.9611 45.105C53.9836 44.4892 56.2071 41.9074 56.3676 38.827C56.5281 35.7472 54.5854 32.9475 51.6435 32.021V32.0295Z" fill="#79665E"/>
<path d="M45.1535 49.2711L40.9347 52.6458V38.9971C40.9347 38.3068 40.3751 37.7471 39.6848 37.7471C38.9944 37.7471 38.4347 38.3068 38.4347 38.9971V52.6458L34.216 49.2711C33.6771 48.8396 32.8897 48.9269 32.4588 49.4658C32.0273 50.0048 32.1146 50.7921 32.6535 51.223L38.9035 56.223C38.9584 56.2596 39.0158 56.2914 39.0762 56.3182C39.1165 56.3445 39.158 56.3689 39.2007 56.3909C39.3533 56.4586 39.5181 56.4946 39.6848 56.4971C39.852 56.4934 40.0168 56.4556 40.17 56.3872C40.1871 56.3793 40.2084 56.3872 40.2261 56.3732C40.2805 56.3427 40.3323 56.3079 40.3812 56.2694C40.4105 56.256 40.4385 56.2407 40.466 56.223L46.716 51.223C47.2549 50.7921 47.3422 50.0048 46.9107 49.4658C46.4798 48.9269 45.6924 48.8396 45.1535 49.2711Z" fill="#79665E"/>
<path d="M32.5 72.5H22.5C22.1685 72.5 21.8505 72.6317 21.6161 72.8661C21.3817 73.1005 21.25 73.4185 21.25 73.75C21.25 74.0815 21.3817 74.3995 21.6161 74.6339C21.8505 74.8683 22.1685 75 22.5 75H32.5C32.8315 75 33.1495 74.8683 33.3839 74.6339C33.6183 74.3995 33.75 74.0815 33.75 73.75C33.75 73.4185 33.6183 73.1005 33.3839 72.8661C33.1495 72.6317 32.8315 72.5 32.5 72.5Z" fill="#79665E"/>
<path d="M37.5 72.5H36.25C35.9185 72.5 35.6005 72.6317 35.3661 72.8661C35.1317 73.1005 35 73.4185 35 73.75C35 74.0815 35.1317 74.3995 35.3661 74.6339C35.6005 74.8683 35.9185 75 36.25 75H37.5C37.8315 75 38.1495 74.8683 38.3839 74.6339C38.6183 74.3995 38.75 74.0815 38.75 73.75C38.75 73.4185 38.6183 73.1005 38.3839 72.8661C38.1495 72.6317 37.8315 72.5 37.5 72.5Z" fill="#79665E"/>
</svg>
