<svg width="80" height="80" viewBox="0 0 80 80" fill="none" xmlns="http://www.w3.org/2000/svg">
<path d="M46.25 7.5H33.75L31.25 2.5H48.75L46.25 7.5Z" fill="#9B7B70"/>
<path d="M56.25 1.25H23.75C22.093 1.25198 20.5044 1.9111 19.3328 3.08277C18.1611 4.25445 17.502 5.84301 17.5 7.5V72.5C17.502 74.157 18.1611 75.7456 19.3328 76.9172C20.5044 78.0889 22.093 78.748 23.75 78.75H56.25C57.907 78.748 59.4956 78.0889 60.6672 76.9172C61.8389 75.7456 62.498 74.157 62.5 72.5V7.5C62.498 5.84301 61.8389 4.25445 60.6672 3.08277C59.4956 1.9111 57.907 1.25198 56.25 1.25ZM46.7275 3.75L45.4775 6.25H34.5225L33.2725 3.75H46.7275ZM60 72.5C60 73.4946 59.6049 74.4484 58.9016 75.1516C58.1984 75.8549 57.2446 76.25 56.25 76.25H23.75C22.7554 76.25 21.8016 75.8549 21.0983 75.1516C20.3951 74.4484 20 73.4946 20 72.5V7.5C20 6.50544 20.3951 5.55161 21.0983 4.84835C21.8016 4.14509 22.7554 3.75 23.75 3.75H30.4775L32.6312 8.05875C32.7351 8.26654 32.8948 8.44129 33.0924 8.56339C33.29 8.68549 33.5177 8.75011 33.75 8.75H46.25C46.4834 8.75127 46.7124 8.6872 46.9112 8.56504C47.11 8.44287 47.2707 8.26749 47.375 8.05875L49.5225 3.75H56.25C57.2446 3.75 58.1984 4.14509 58.9016 4.84835C59.6049 5.55161 60 6.50544 60 7.5V72.5Z" fill="#79665E"/>
<path d="M32.5 72.5H22.5C22.1685 72.5 21.8505 72.6317 21.6161 72.8661C21.3817 73.1005 21.25 73.4185 21.25 73.75C21.25 74.0815 21.3817 74.3995 21.6161 74.6339C21.8505 74.8683 22.1685 75 22.5 75H32.5C32.8315 75 33.1495 74.8683 33.3839 74.6339C33.6183 74.3995 33.75 74.0815 33.75 73.75C33.75 73.4185 33.6183 73.1005 33.3839 72.8661C33.1495 72.6317 32.8315 72.5 32.5 72.5Z" fill="#79665E"/>
<path d="M37.5 72.5H36.25C35.9185 72.5 35.6005 72.6317 35.3661 72.8661C35.1317 73.1005 35 73.4185 35 73.75C35 74.0815 35.1317 74.3995 35.3661 74.6339C35.6005 74.8683 35.9185 75 36.25 75H37.5C37.8315 75 38.1495 74.8683 38.3839 74.6339C38.6183 74.3995 38.75 74.0815 38.75 73.75C38.75 73.4185 38.6183 73.1005 38.3839 72.8661C38.1495 72.6317 37.8315 72.5 37.5 72.5Z" fill="#79665E"/>
<path d="M41.25 15.5C38.2664 15.5002 35.4051 16.6856 33.2953 18.7953C31.1856 20.9051 30.0002 23.7664 30 26.75C30 32.9625 41.25 43 41.25 43C41.25 43 52.5 32.9625 52.5 26.75C52.4998 23.7664 51.3144 20.9051 49.2047 18.7953C47.0949 16.6856 44.2336 15.5002 41.25 15.5ZM41.25 28C40.7555 28 40.2722 27.8534 39.8611 27.5787C39.45 27.304 39.1295 26.9135 38.9403 26.4567C38.7511 25.9999 38.7016 25.4972 38.798 25.0123C38.8945 24.5273 39.1326 24.0819 39.4822 23.7322C39.8319 23.3826 40.2773 23.1445 40.7623 23.048C41.2472 22.9516 41.7499 23.0011 42.2067 23.1903C42.6635 23.3795 43.054 23.7 43.3287 24.1111C43.6034 24.5222 43.75 25.0055 43.75 25.5C43.75 26.163 43.4866 26.7989 43.0178 27.2678C42.5489 27.7366 41.913 28 41.25 28Z" fill="#9B7B70"/>
<path d="M40.1678 43.6828C40.3968 43.8872 40.6931 44.0001 41 44.0001C41.3069 44.0001 41.6032 43.8872 41.8322 43.6828C43.8639 41.8288 45.7816 39.8535 47.5747 37.7678C51.5064 33.1744 53.5 29.3833 53.5 26.5C53.5 23.1848 52.183 20.0054 49.8388 17.6612C47.4946 15.317 44.3152 14 41 14C37.6848 14 34.5054 15.317 32.1612 17.6612C29.817 20.0054 28.5 23.1848 28.5 26.5C28.5 29.3833 30.4936 33.1744 34.4253 37.7678C36.2184 39.8535 38.1361 41.8288 40.1678 43.6828ZM41 16.5C43.6513 16.503 46.1931 17.5575 48.0678 19.4322C49.9425 21.3069 50.997 23.8487 51 26.5C51 30.7522 44.4119 37.8375 41 41.0525C37.5881 37.8375 31 30.7522 31 26.5C31.003 23.8487 32.0575 21.3069 33.9322 19.4322C35.8069 17.5575 38.3487 16.503 41 16.5Z" fill="#79665E"/>
<path d="M44.75 25.25C44.75 24.5083 44.5301 23.7833 44.118 23.1666C43.706 22.5499 43.1203 22.0693 42.4351 21.7855C41.7498 21.5016 40.9958 21.4274 40.2684 21.5721C39.541 21.7168 38.8728 22.0739 38.3484 22.5984C37.8239 23.1228 37.4668 23.791 37.3221 24.5184C37.1774 25.2458 37.2516 25.9998 37.5355 26.6851C37.8193 27.3703 38.2999 27.956 38.9166 28.368C39.5333 28.7801 40.2583 29 41 29C41.9942 28.9989 42.9474 28.6034 43.6504 27.9004C44.3534 27.1974 44.7489 26.2442 44.75 25.25ZM39.75 25.25C39.75 25.0028 39.8233 24.7611 39.9607 24.5555C40.098 24.35 40.2932 24.1898 40.5217 24.0952C40.7501 24.0005 41.0014 23.9758 41.2439 24.024C41.4863 24.0723 41.7091 24.1913 41.8839 24.3661C42.0587 24.5409 42.1778 24.7637 42.226 25.0061C42.2742 25.2486 42.2495 25.4999 42.1549 25.7284C42.0602 25.9568 41.9 26.152 41.6945 26.2893C41.4889 26.4267 41.2472 26.5 41 26.5C40.6686 26.4996 40.3509 26.3678 40.1165 26.1335C39.8822 25.8991 39.7504 25.5814 39.75 25.25Z" fill="#79665E"/>
<path d="M53.5 54H28.5V50.25H41C41.3315 50.25 41.6495 50.1183 41.8839 49.8839C42.1183 49.6495 42.25 49.3315 42.25 49V46.5C42.25 46.1685 42.1183 45.8505 41.8839 45.6161C41.6495 45.3817 41.3315 45.25 41 45.25C40.6685 45.25 40.3505 45.3817 40.1161 45.6161C39.8817 45.8505 39.75 46.1685 39.75 46.5V47.75H27.25C26.9185 47.75 26.6005 47.8817 26.3661 48.1161C26.1317 48.3505 26 48.6685 26 49V55.25C26 55.5815 26.1317 55.8995 26.3661 56.1339C26.6005 56.3683 26.9185 56.5 27.25 56.5H52.25V59H36C35.6685 59 35.3505 59.1317 35.1161 59.3661C34.8817 59.6005 34.75 59.9185 34.75 60.25V66C34.75 66.3315 34.8817 66.6495 35.1161 66.8839C35.3505 67.1183 35.6685 67.25 36 67.25C36.3315 67.25 36.6495 67.1183 36.8839 66.8839C37.1183 66.6495 37.25 66.3315 37.25 66V61.5H53.5C53.8315 61.5 54.1495 61.3683 54.3839 61.1339C54.6183 60.8995 54.75 60.5815 54.75 60.25V55.25C54.75 54.9185 54.6183 54.6005 54.3839 54.3661C54.1495 54.1317 53.8315 54 53.5 54Z" fill="#79665E"/>
</svg>
