<svg width="100" height="100" viewBox="0 0 100 100" fill="none" xmlns="http://www.w3.org/2000/svg">
<path d="M35.4607 8.0708C20.3447 8.0708 8.0592 20.3739 8.0592 35.5117C8.0592 50.6495 20.3447 62.9527 35.4607 62.9527C50.5768 62.9527 62.8622 50.6495 62.8622 35.5117C62.8622 20.3739 50.5768 8.0708 35.4607 8.0708ZM20.954 54.8425C20.9737 46.8503 27.4801 40.3543 35.4607 40.3543C43.4414 40.3543 49.9478 46.8503 49.9674 54.8425C45.9181 57.8936 40.9056 59.7243 35.4607 59.7243C30.0158 59.7243 25.0033 57.8936 20.954 54.8425ZM29.0133 30.6692C29.0133 27.1062 31.9028 24.2125 35.4607 24.2125C39.0186 24.2125 41.9081 27.1062 41.9081 30.6692C41.9081 34.2322 39.0186 37.1259 35.4607 37.1259C31.9028 37.1259 29.0133 34.2322 29.0133 30.6692ZM52.9552 52.1653C51.9527 45.7086 47.4907 40.3936 41.4953 38.2086C43.6969 36.4369 45.1122 33.7204 45.1122 30.6692C45.1122 25.3346 40.768 20.9842 35.4411 20.9842C30.1141 20.9842 25.7699 25.3346 25.7699 30.6692C25.7699 33.7204 27.1852 36.4369 29.3868 38.2086C23.4111 40.3936 18.9294 45.7086 17.9269 52.1653C13.799 47.8149 11.2436 41.9684 11.2436 35.5117C11.2436 22.1653 22.0941 11.2991 35.4214 11.2991C48.7487 11.2991 59.5992 22.1653 59.5992 35.5117C59.6385 41.9684 57.0832 47.8346 52.9552 52.1653Z" fill="#E3DAD7"/>
<path d="M97.0257 83.4646L77.8604 64.2717C76.0323 62.4409 73.5949 61.437 71.0199 61.437C70.155 61.437 69.3294 61.5551 68.5235 61.7716L63.7076 56.9488C68.2286 50.9842 70.9216 43.563 70.9216 35.5118C70.9216 15.9252 55.0193 0 35.4608 0C15.9023 0 0 15.9252 0 35.5118C0 55.0984 15.9023 71.0236 35.4608 71.0236C43.5004 71.0236 50.911 68.3268 56.867 63.7992L61.6829 68.622C61.4667 69.4291 61.3487 70.2756 61.3487 71.122C61.3487 73.7008 62.3512 76.1417 64.1793 77.9724L83.3447 97.1654C85.1727 98.9961 87.6102 100 90.1852 100C92.7602 100 95.1977 98.9961 97.0257 97.1654C98.8538 95.3346 99.8563 92.9134 99.8563 90.315C99.8563 87.7362 98.8538 85.2953 97.0257 83.4646ZM3.22371 35.5118C3.22371 17.7165 17.6911 3.22835 35.4608 3.22835C53.2305 3.22835 67.6979 17.7165 67.6979 35.5118C67.6979 53.3071 53.2305 67.7953 35.4608 67.7953C17.6911 67.7953 3.22371 53.3071 3.22371 35.5118ZM63.1375 65.5118L59.3634 61.7323C60.1497 61.0039 60.9163 60.2362 61.6436 59.4488L65.4373 63.248C65.0049 63.563 64.5921 63.8976 64.199 64.2913C63.7862 64.6654 63.452 65.0787 63.1375 65.5118ZM66.4595 75.689C65.2408 74.4685 64.5724 72.8543 64.5724 71.122C64.5724 69.3898 65.2408 67.7756 66.4595 66.5551C67.6782 65.3346 69.2901 64.6654 71.0199 64.6654C72.7497 64.6654 74.3615 65.3346 75.5802 66.5551L93.6055 84.6063L84.4847 93.7402L66.4595 75.689ZM94.7456 94.8819C93.5268 96.1024 91.915 96.7717 90.1852 96.7717C89.0255 96.7717 87.905 96.437 86.9222 95.8661L95.7087 87.0669C96.2788 88.0512 96.613 89.1535 96.613 90.3346C96.6326 92.0472 95.9643 93.6614 94.7456 94.8819Z" fill="#E3DAD7"/>
<path d="M73.6718 71.4974L71.3923 73.7802L73.6718 76.0629L75.9513 73.7802L73.6718 71.4974Z" fill="#E3DAD7"/>
<path d="M78.2329 76.0639L75.9534 78.3467L78.2329 80.6294L80.5124 78.3467L78.2329 76.0639Z" fill="#E3DAD7"/>
<path d="M85.0724 82.9129L82.7929 80.6301L80.5134 82.9129L82.7929 85.1956L85.0724 82.9129Z" fill="#E3DAD7"/>
</svg>
