<svg width="100" height="100" viewBox="0 0 100 100" fill="none" xmlns="http://www.w3.org/2000/svg">
<path d="M98.3333 15.8334H93.3333V12.5001C93.3333 11.5797 92.5871 10.8334 91.6667 10.8334H56.6667C54.0333 10.8407 51.5598 12.0967 50 14.2184C48.4402 12.0967 45.9667 10.8407 43.3333 10.8334H8.33333C7.41292 10.8334 6.66667 11.5797 6.66667 12.5001V15.8334H1.66667C0.74625 15.8334 0 16.5797 0 17.5001V87.5001C0 88.4205 0.74625 89.1667 1.66667 89.1667H98.3333C99.2537 89.1667 100 88.4205 100 87.5001V17.5001C100 16.5797 99.2537 15.8334 98.3333 15.8334ZM48.3333 85.8334H3.33333V19.1667H6.66667V77.5001C6.66667 78.4205 7.41292 79.1667 8.33333 79.1667H43.3333C45.6271 79.1626 47.6273 80.7251 48.1783 82.9517C48.2865 83.3476 48.3387 83.7565 48.3333 84.1667V85.8334ZM48.3333 77.5001C48.145 77.3584 47.9367 77.2467 47.7367 77.1217C47.5783 77.0251 47.4317 76.9134 47.2667 76.8267C47.0248 76.7028 46.7767 76.5915 46.5233 76.4934C46.3567 76.4251 46.205 76.3417 46.0367 76.2851C45.7467 76.1932 45.4519 76.1174 45.1533 76.0584C45.0067 76.0251 44.8667 75.9751 44.7183 75.9501C44.2608 75.8724 43.7975 75.8334 43.3333 75.8334H10V14.1667H43.3333C46.0948 14.1667 48.3333 16.4053 48.3333 19.1667V77.5001ZM51.6667 19.1667C51.6667 16.4053 53.9052 14.1667 56.6667 14.1667H90V75.8334H56.6667C56.2025 75.8334 55.7392 75.8724 55.2817 75.9501C55.115 75.9767 54.9683 76.0317 54.81 76.0667C54.5252 76.124 54.2438 76.1963 53.9667 76.2834C53.7667 76.3517 53.5817 76.4501 53.3883 76.5317C53.195 76.6134 52.95 76.6984 52.7417 76.8151C52.5333 76.9317 52.3267 77.0751 52.12 77.2084C51.97 77.3067 51.81 77.3884 51.6667 77.4951V19.1667ZM96.6667 85.8334H51.6667V84.1667C51.6629 83.7421 51.719 83.319 51.8333 82.9101C52.3983 80.7036 54.389 79.1619 56.6667 79.1667H91.6667C92.5871 79.1667 93.3333 78.4205 93.3333 77.5001V19.1667H96.6667V85.8334Z" fill="#E3DAD7"/>
<path d="M93.3333 80.8334H56.6666V84.1667H93.3333V80.8334Z" fill="#E3DAD7"/>
<path d="M43.3333 80.8334H6.66663V84.1667H43.3333V80.8334Z" fill="#E3DAD7"/>
<path d="M18.3333 22.5H15V25.8333H18.3333V22.5Z" fill="#E3DAD7"/>
<path d="M41.6666 22.5H21.6666V25.8333H41.6666V22.5Z" fill="#E3DAD7"/>
<path d="M41.6667 30.8334H15V34.1667H41.6667V30.8334Z" fill="#E3DAD7"/>
<path d="M41.6667 39.1668H15V42.5001H41.6667V39.1668Z" fill="#E3DAD7"/>
<path d="M21.6667 47.5H15V50.8333H21.6667V47.5Z" fill="#E3DAD7"/>
<path d="M41.6667 47.5H25V50.8333H41.6667V47.5Z" fill="#E3DAD7"/>
<path d="M41.6667 55.8334H15V59.1667H41.6667V55.8334Z" fill="#E3DAD7"/>
<path d="M41.6667 64.1668H15V67.5001H41.6667V64.1668Z" fill="#E3DAD7"/>
<path d="M61.6667 22.5H58.3334V25.8333H61.6667V22.5Z" fill="#E3DAD7"/>
<path d="M85 22.5H65V25.8333H85V22.5Z" fill="#E3DAD7"/>
<path d="M85 30.8334H58.3334V34.1667H85V30.8334Z" fill="#E3DAD7"/>
<path d="M85 39.1668H58.3334V42.5001H85V39.1668Z" fill="#E3DAD7"/>
<path d="M85 55.8334H58.3334V59.1667H85V55.8334Z" fill="#E3DAD7"/>
<path d="M85 64.1668H58.3334V67.5001H85V64.1668Z" fill="#E3DAD7"/>
<path d="M85 47.5H58.3334V50.8333H85V47.5Z" fill="#E3DAD7"/>
</svg>
