<svg width="100" height="100" viewBox="0 0 100 100" fill="none" xmlns="http://www.w3.org/2000/svg">
<g>
<path d="M94.9995 13.3331H71.0501C70.1292 13.3331 69.3831 14.0793 69.3831 15.0001C69.3831 15.9203 70.1292 16.6664 71.0501 16.6664H94.9995C95.9203 16.6664 96.6665 17.4133 96.6665 18.3334V63.333H3.33327V18.3334C3.33327 17.4133 4.07943 16.6664 5.00029 16.6664H28.2165C29.1373 16.6664 29.8835 15.9203 29.8835 15.0001C29.8835 14.0793 29.1373 13.3331 28.2165 13.3331H5.00029C2.23846 13.3331 0 15.5724 0 18.3334V74.9998C0 77.7617 2.23846 80.0001 5.00029 80.0001H38.0332L35.2553 96.6665H31.6665C30.7464 96.6665 30.0002 97.4127 30.0002 98.3335C30.0002 99.2536 30.7464 99.9998 31.6665 99.9998H68.3333C69.2541 99.9998 70.0003 99.2536 70.0003 98.3335C70.0003 97.4127 69.2541 96.6665 68.3333 96.6665H64.7452L61.9665 80.0001H95.0002C97.7613 80.0001 99.9997 77.7617 99.9997 74.9998V18.3334C99.9997 15.5724 97.7613 13.3331 94.9995 13.3331ZM61.3646 96.6665H38.6352L41.4115 80.0001H58.5883L61.3646 96.6665ZM94.9995 76.6669H5.00029C4.07943 76.6669 3.33327 75.9207 3.33327 74.9998V66.667H96.6665V74.9998C96.6665 75.9207 95.9203 76.6669 94.9995 76.6669Z" fill="#E3DAD7"/>
<path d="M51.6671 70.0005H48.3338C47.4129 70.0005 46.6667 70.7466 46.6667 71.6667C46.6667 72.5876 47.4129 73.3337 48.3338 73.3337H51.6671C52.5872 73.3337 53.3333 72.5876 53.3333 71.6667C53.3333 70.7466 52.5872 70.0005 51.6671 70.0005Z" fill="#E3DAD7"/>
<path d="M36.6669 53.3333H63.3332C65.1741 53.3333 66.6664 51.841 66.6664 50V18.3334C66.6664 17.4133 65.9203 16.6664 65.0002 16.6664H59.9999V8.33359C59.9945 3.73306 56.2668 0.00534059 51.6671 0H48.3338C43.7332 0.00534059 40.0055 3.73306 40.0002 8.33359V16.6664H34.9999C34.0798 16.6664 33.3336 17.4133 33.3336 18.3334V50C33.3336 51.841 34.8259 53.3333 36.6669 53.3333ZM36.6669 50V36.6669H63.3332V50H36.6669ZM36.6669 31.6666H63.3332V33.3336H36.6669V31.6666ZM43.3335 8.33359C43.3335 5.57175 45.5719 3.33328 48.3338 3.33328H51.6671C54.4281 3.33328 56.6666 5.57175 56.6666 8.33359V16.6664H43.3335V8.33359ZM40.0002 20.0005V25C40.0002 25.9209 40.7463 26.667 41.6664 26.667C42.5873 26.667 43.3335 25.9209 43.3335 25V20.0005H56.6666V25C56.6666 25.9209 57.4128 26.667 58.3336 26.667C59.2537 26.667 59.9999 25.9209 59.9999 25V20.0005H63.3332V28.3333H36.6669V20.0005H40.0002Z" fill="#E3DAD7"/>
</g>
</svg>
