<svg width="26" height="27" fill="none" xmlns="http://www.w3.org/2000/svg"><path d="M20.668.238H5.332A5.338 5.338 0 000 5.57v15.336a5.338 5.338 0 005.332 5.332h15.336A5.338 5.338 0 0026 20.906V5.57A5.338 5.338 0 0020.668.238zM8.006 20.272a1.27 1.27 0 01-2.2-1.27l.25-.432h2.932l-.982 1.702zM5.61 17.555a1.271 1.271 0 010-2.54h2.5l3.425-5.932-.928-1.608a1.271 1.271 0 01.464-1.735 1.271 1.271 0 011.735.465l.195.339.195-.339a1.271 1.271 0 012.326.306c.088.328.043.67-.127.964l-4.354 7.54h2.747l1.466 2.54H5.61zm14.778 0h-1.032l.836 1.448a1.271 1.271 0 01-1.428 1.86 1.261 1.261 0 01-.77-.59l-4.409-7.636 1.466-2.539 2.84 4.918h2.497a1.27 1.27 0 010 2.54z"/></svg>