<svg width="26" height="27" fill="none" xmlns="http://www.w3.org/2000/svg"><path d="M5.675.654a3.301 3.301 0 00-3.222.008L14.298 11.59l3.98-3.98L5.675.654zM1.268 1.78a3.03 3.03 0 00-.455 1.588v19.736c0 .556.151 1.085.424 1.548L13.15 12.74 1.268 1.78zm22.286 8.742l-3.796-2.094-4.265 4.263 5.227 4.821 2.835-1.564c1.02-.566 1.632-1.58 1.632-2.714-.002-1.134-.611-2.148-1.633-2.712zm-9.21 3.32L2.399 25.786a3.347 3.347 0 001.659.452c.552 0 1.108-.14 1.617-.42l13.547-7.477-4.878-4.5z" fill="#FF5A78"/></svg>