<svg width="170" height="65" viewBox="0 0 170 65" fill="none" xmlns="http://www.w3.org/2000/svg">
<path fill-rule="evenodd" clip-rule="evenodd" d="M61.0606 3.93939H3.93939V61.0606H61.0606V3.93939ZM0 0V65H65V0H0Z" fill="white"/>
<path d="M36.1951 50.499C36.1951 52.4984 34.5743 54.1193 32.5748 54.1193C30.5754 54.1193 28.9546 52.4984 28.9546 50.499C28.9546 48.4996 30.5754 46.8788 32.5748 46.8788C34.5743 46.8788 36.1951 48.4996 36.1951 50.499Z" fill="white"/>
<path d="M45.575 50.499C45.575 52.4984 43.9541 54.1193 41.9547 54.1193C39.9553 54.1193 38.3345 52.4984 38.3345 50.499C38.3345 48.4996 39.9553 46.8788 41.9547 46.8788C43.9541 46.8788 45.575 48.4996 45.575 50.499Z" fill="white"/>
<path d="M54.9544 50.499C54.9544 52.4984 53.3335 54.1193 51.3341 54.1193C49.3347 54.1193 47.7139 52.4984 47.7139 50.499C47.7139 48.4996 49.3347 46.8788 51.3341 46.8788C53.3335 46.8788 54.9544 48.4996 54.9544 50.499Z" fill="white"/>
<path d="M95.3824 19.0322C96.3919 18.1705 96.8843 17.0379 96.8843 15.6591C96.8843 14.2065 96.3672 13.0246 95.3085 12.1137C94.2744 11.2027 92.9941 10.7349 91.443 10.7349H84.6968V27.9697H91.9354C93.5112 27.9697 94.8407 27.5019 95.8994 26.5663C96.9581 25.6307 97.4998 24.4243 97.4998 22.9224C97.4998 21.2235 96.7858 19.9432 95.3824 19.0322ZM91.443 14.428C92.3294 14.428 92.9449 15.0682 92.9449 15.9546C92.9449 16.8409 92.3294 17.4811 91.443 17.4811H88.6362V14.428H91.443ZM88.6362 24.2765V20.9773H91.9354C92.9203 20.9773 93.5604 21.6421 93.5604 22.6269C93.5604 23.6118 92.9203 24.2765 91.9354 24.2765H88.6362Z" fill="white"/>
<path d="M112.602 23.2917C112.7 22.8239 112.75 22.3315 112.75 21.8144C112.75 19.9678 112.159 18.4167 110.952 17.1856C109.77 15.9299 108.293 15.3144 106.496 15.3144C104.575 15.3144 103 15.9299 101.769 17.1856C100.562 18.4167 99.9465 19.9678 99.9465 21.8144C99.9465 23.6856 100.562 25.2368 101.793 26.4678C103.049 27.6989 104.698 28.3144 106.767 28.3144C109.13 28.3144 110.928 27.4773 112.134 25.7784L109.179 24.0796C108.613 24.6951 107.825 25.0152 106.816 25.0152C105.265 25.0152 104.28 24.4489 103.861 23.2917H112.602ZM103.787 20.5341C104.157 19.2292 105.043 18.589 106.471 18.589C107.85 18.589 108.712 19.2292 109.081 20.5341H103.787Z" fill="white"/>
<path d="M124.646 16.8163C123.785 15.8068 122.554 15.3144 120.978 15.3144C119.353 15.3144 117.974 15.9546 116.817 17.2102C115.66 18.4659 115.093 19.9924 115.093 21.8144C115.093 23.6364 115.66 25.1875 116.817 26.4432C117.974 27.6989 119.353 28.3144 120.978 28.3144C122.554 28.3144 123.785 27.822 124.646 26.8125V27.9697H128.34V15.6591H124.646V16.8163ZM119.599 24.0057C119.057 23.464 118.787 22.7254 118.787 21.8144C118.787 20.9034 119.057 20.1648 119.599 19.6231C120.141 19.0815 120.855 18.8106 121.716 18.8106C122.578 18.8106 123.292 19.0815 123.834 19.6231C124.376 20.1648 124.646 20.9034 124.646 21.8144C124.646 22.7254 124.376 23.464 123.834 24.0057C123.292 24.5474 122.578 24.8182 121.716 24.8182C120.855 24.8182 120.141 24.5474 119.599 24.0057Z" fill="white"/>
<path d="M139.987 22.3807C139.987 24.0549 139.1 24.9167 137.697 24.9167C136.441 24.9167 135.555 24.1288 135.555 22.6762V15.6591H131.862V23.2178C131.862 24.8182 132.305 26.0493 133.167 26.9602C134.053 27.8712 135.161 28.3144 136.466 28.3144C138.066 28.3144 139.248 27.822 139.987 26.8125V27.9697H143.68V15.6591H139.987V22.3807Z" fill="white"/>
<path d="M154.587 15.6591H152.051V12.2121L148.358 13.3201V15.6591H146.388V19.2046H148.358V23.5625C148.358 25.3599 148.801 26.5909 149.712 27.3049C150.623 27.9943 152.248 28.2159 154.587 27.9697V24.6212C152.79 24.7197 152.051 24.5474 152.051 23.5625V19.2046H154.587V15.6591Z" fill="white"/>
<path d="M163.345 23.1932L160.612 15.6591H156.549L161.449 27.4034C160.883 28.9053 160.07 29.447 158.371 29.447V32.894C161.843 33.0663 164.01 31.4659 165.388 27.6004L169.599 15.6591H165.659L163.345 23.1932Z" fill="white"/>
<path d="M95.3824 44.8969C96.3919 44.0352 96.8843 42.9026 96.8843 41.5238C96.8843 40.0712 96.3672 38.8894 95.3085 37.9784C94.2744 37.0674 92.9941 36.5996 91.443 36.5996H84.6968V53.8344H91.9354C93.5112 53.8344 94.8407 53.3666 95.8994 52.431C96.9581 51.4954 97.4998 50.289 97.4998 48.7871C97.4998 47.0882 96.7858 45.8079 95.3824 44.8969ZM91.443 40.2928C92.3294 40.2928 92.9449 40.9329 92.9449 41.8193C92.9449 42.7057 92.3294 43.3458 91.443 43.3458H88.6362V40.2928H91.443ZM88.6362 50.1413V46.842H91.9354C92.9203 46.842 93.5604 47.5068 93.5604 48.4916C93.5604 49.4765 92.9203 50.1413 91.9354 50.1413H88.6362Z" fill="white"/>
<path d="M104.015 53.8344V35.861H100.322V53.8344H104.015Z" fill="white"/>
<path d="M116.64 42.681C115.778 41.6716 114.547 41.1791 112.971 41.1791C111.346 41.1791 109.967 41.8193 108.81 43.075C107.653 44.3307 107.087 45.8572 107.087 47.6791C107.087 49.5011 107.653 51.0522 108.81 52.3079C109.967 53.5636 111.346 54.1791 112.971 54.1791C114.547 54.1791 115.778 53.6867 116.64 52.6772V53.8344H120.333V41.5238H116.64V42.681ZM111.592 49.8704C111.051 49.3288 110.78 48.5901 110.78 47.6791C110.78 46.7682 111.051 46.0295 111.592 45.4879C112.134 44.9462 112.848 44.6754 113.71 44.6754C114.572 44.6754 115.286 44.9462 115.827 45.4879C116.369 46.0295 116.64 46.7682 116.64 47.6791C116.64 48.5901 116.369 49.3288 115.827 49.8704C115.286 50.4121 114.572 50.6829 113.71 50.6829C112.848 50.6829 112.134 50.4121 111.592 49.8704Z" fill="white"/>
<path d="M133.26 43.986V41.5238H123.904V44.9708H128.311L123.658 51.3723V53.8344H133.506V50.3875H128.607L133.26 43.986Z" fill="white"/>
<path d="M147.992 49.1564C148.09 48.6886 148.14 48.1962 148.14 47.6791C148.14 45.8326 147.549 44.2814 146.342 43.0504C145.161 41.7947 143.683 41.1791 141.886 41.1791C139.965 41.1791 138.39 41.7947 137.159 43.0504C135.952 44.2814 135.337 45.8326 135.337 47.6791C135.337 49.5504 135.952 51.1015 137.183 52.3326C138.439 53.5636 140.089 54.1791 142.157 54.1791C144.52 54.1791 146.318 53.342 147.524 51.6432L144.57 49.9443C144.003 50.5598 143.215 50.8799 142.206 50.8799C140.655 50.8799 139.67 50.3136 139.251 49.1564H147.992ZM139.178 46.3988C139.547 45.0939 140.433 44.4538 141.861 44.4538C143.24 44.4538 144.102 45.0939 144.471 46.3988H139.178Z" fill="white"/>
</svg>
