<svg width="26" height="27" viewBox="0 0 26 27" fill="none" xmlns="http://www.w3.org/2000/svg">
  <path d="M20.668 0.238281H5.33203C2.39195 0.238281 0 2.63023 0 5.57031V20.9062C0 23.8463 2.39195 26.2383 5.33203 26.2383H20.668C23.6081 26.2383 26 23.8463 26 20.9062V5.57031C26 2.63023 23.6081 0.238281 20.668 0.238281ZM8.00561 20.2722C7.77075 20.6791 7.34312 20.9067 6.90402 20.9068C6.68875 20.9068 6.4708 20.8521 6.27138 20.7369C5.66516 20.387 5.4567 19.609 5.80668 19.0028L6.05638 18.5703H8.98823L8.00561 20.2722ZM5.61133 17.5547C4.91131 17.5547 4.3418 16.9852 4.3418 16.2852C4.3418 15.5851 4.91131 15.0156 5.61133 15.0156H8.10865L11.534 9.08265L10.6057 7.47471C10.2557 6.86848 10.4641 6.09052 11.0704 5.74048H11.0704C11.6766 5.3905 12.4546 5.599 12.8046 6.20518L13 6.54364L13.1954 6.20523C13.5455 5.59895 14.3235 5.39055 14.9296 5.74053C15.2233 5.91009 15.4333 6.18385 15.5211 6.51139C15.6089 6.83893 15.5638 7.18109 15.3942 7.47476L11.0405 15.0156H13.7867L15.2527 17.5547H5.61133ZM20.3887 17.5547H19.3573L20.1933 19.0027C20.5433 19.6089 20.3348 20.3869 19.7287 20.7369C19.533 20.8498 19.3159 20.9076 19.0959 20.9076C18.9856 20.9076 18.8747 20.8931 18.7652 20.8637C18.4377 20.7759 18.1639 20.5659 17.9943 20.2721L13.5863 12.6373L15.0522 10.0982L17.8914 15.0156H20.3887C21.0887 15.0156 21.6582 15.5851 21.6582 16.2852C21.6582 16.9852 21.0887 17.5547 20.3887 17.5547Z"/>
</svg>
