<svg width="26" height="27" viewBox="0 0 26 27" fill="none" xmlns="http://www.w3.org/2000/svg">
<g>
<path d="M5.67483 0.654092C4.65764 0.0918738 3.46333 0.104873 2.45264 0.662216L14.2982 11.5897L18.2776 7.61032L5.67483 0.654092Z" fill="#FF5A78"/>
<path d="M1.26796 1.78015C0.978729 2.253 0.812988 2.79409 0.812988 3.36769V23.1038C0.812988 23.6595 0.964105 24.1893 1.23709 24.6524L13.1493 12.7402L1.26796 1.78015Z" fill="#FF5A78"/>
<path d="M23.5538 10.5221L19.7581 8.42761L15.4927 12.6914L20.72 17.5125L23.5555 15.9477C24.5759 15.3822 25.1869 14.3683 25.1869 13.2341C25.1853 12.0999 24.5759 11.086 23.5538 10.5221Z" fill="#FF5A78"/>
<path d="M14.3436 13.8418L2.39893 25.7865C2.91727 26.0822 3.48599 26.2382 4.05796 26.2382C4.61043 26.2382 5.16614 26.0985 5.67474 25.8174L19.2216 18.3412L14.3436 13.8418Z" fill="#FF5A78"/>
</g>
</svg>
