<svg version="1.0" xmlns="http://www.w3.org/2000/svg" width="933.333" height="933.333" viewBox="0 0 700 700"><path d="M0 350v350h700V0H0v350zm657.5 0v307.5h-615L42.2 351c-.1-168.6 0-307.1.3-307.8.3-1 62.4-1.2 307.7-1l307.3.3V350z"/><path d="M338.5 507c-11.9 4-20.8 13.1-24.6 25.3-10 32.3 23.5 61.2 53.9 46.5 6.2-2.9 15.2-12.1 18.1-18.3 9.2-19.7.8-42.6-18.9-51.9-8.5-4-19.6-4.6-28.5-1.6zm101 0c-11.9 4-20.8 13.1-24.6 25.3-10 32.3 23.5 61.2 53.9 46.5 6-2.8 15.2-12 18.1-18 9.3-19.4.8-42.9-18.9-52.2-8.5-4-19.6-4.6-28.5-1.6zm101 0c-11.9 4-20.8 13.1-24.6 25.3-10 32.3 23.5 61.2 53.9 46.5 6-2.8 15.2-12 18.1-18 9.3-19.4.8-42.9-18.9-52.2-8.5-4-19.6-4.6-28.5-1.6z"/></svg>