<?xml version="1.0" standalone="no"?>
<!DOCTYPE svg PUBLIC "-//W3C//DTD SVG 20010904//EN"
 "http://www.w3.org/TR/2001/REC-SVG-20010904/DTD/svg10.dtd">
<svg version="1.0" xmlns="http://www.w3.org/2000/svg"
 width="700.000000pt" height="700.000000pt" viewBox="0 0 700.000000 700.000000"
 preserveAspectRatio="xMidYMid meet">
<metadata>
Created by potrace 1.11, written by Peter Selinger 2001-2013
</metadata>
<g transform="translate(0.000000,700.000000) scale(0.100000,-0.100000)"
fill="#000000" stroke="none">
<path d="M0 3500 l0 -3500 3500 0 3500 0 0 3500 0 3500 -3500 0 -3500 0 0
-3500z m6575 0 l0 -3075 -3075 0 -3075 0 -3 3065 c-1 1686 0 3071 3 3078 3 10
624 12 3077 10 l3073 -3 0 -3075z"/>
<path d="M3385 1930 c-119 -40 -208 -131 -246 -253 -100 -323 235 -612 539
-465 62 29 152 121 181 183 92 197 8 426 -189 519 -85 40 -196 46 -285 16z"/>
<path d="M4395 1930 c-119 -40 -208 -131 -246 -253 -100 -323 235 -612 539
-465 60 28 152 120 181 180 93 194 8 429 -189 522 -85 40 -196 46 -285 16z"/>
<path d="M5405 1930 c-119 -40 -208 -131 -246 -253 -100 -323 235 -612 539
-465 60 28 152 120 181 180 93 194 8 429 -189 522 -85 40 -196 46 -285 16z"/>
</g>
</svg>
