<svg width="100" height="100" fill="none" xmlns="http://www.w3.org/2000/svg"><path d="M35.46 8.07c-15.115 0-27.4 12.304-27.4 27.442s12.285 27.44 27.4 27.44c15.117 0 27.402-12.302 27.402-27.44 0-15.138-12.285-27.441-27.401-27.441zM20.955 54.844c.02-7.993 6.526-14.489 14.507-14.489 7.98 0 14.487 6.496 14.506 14.489-4.049 3.05-9.061 4.881-14.506 4.881s-10.458-1.83-14.507-4.881zm8.06-24.174c0-3.563 2.889-6.457 6.447-6.457 3.558 0 6.447 2.894 6.447 6.457 0 3.563-2.89 6.457-6.447 6.457-3.558 0-6.448-2.894-6.448-6.457zm23.941 21.496a17.778 17.778 0 00-11.46-13.956 9.655 9.655 0 003.617-7.54c0-5.334-4.344-9.685-9.67-9.685-5.328 0-9.672 4.35-9.672 9.685a9.655 9.655 0 003.617 7.54c-5.976 2.185-10.458 7.5-11.46 13.956-4.128-4.35-6.683-10.197-6.683-16.653 0-13.347 10.85-24.213 24.177-24.213C48.75 11.3 59.6 22.165 59.6 35.512c.04 6.456-2.516 12.323-6.644 16.653z" fill="#E3DAD7"/><path d="M97.026 83.465L77.86 64.272a9.614 9.614 0 00-9.337-2.5l-4.815-4.823c4.52-5.965 7.214-13.386 7.214-21.437C70.922 15.925 55.019 0 35.46 0 15.902 0 0 15.925 0 35.512c0 19.586 15.902 35.512 35.46 35.512 8.04 0 15.451-2.697 21.407-7.225l4.816 4.823a9.642 9.642 0 002.496 9.35l19.166 19.193a9.614 9.614 0 006.84 2.835 9.614 9.614 0 006.84-2.835 9.608 9.608 0 002.831-6.85 9.642 9.642 0 00-2.83-6.85zM3.224 35.512c0-17.796 14.467-32.284 32.237-32.284 17.77 0 32.237 14.489 32.237 32.284 0 17.795-14.467 32.283-32.237 32.283-17.77 0-32.237-14.488-32.237-32.283zm59.913 30l-3.774-3.78a41.618 41.618 0 002.28-2.283l3.794 3.799c-.432.315-.845.65-1.238 1.043a7.746 7.746 0 00-1.061 1.22zm3.323 10.177a6.406 6.406 0 01-1.888-4.567c0-1.732.669-3.346 1.888-4.567a6.387 6.387 0 014.56-1.89c1.73 0 3.342.67 4.56 1.89l18.026 18.051-9.121 9.134L66.46 75.69zm28.286 19.193a6.387 6.387 0 01-4.56 1.89c-1.16 0-2.281-.335-3.264-.906l8.787-8.8c.57.985.904 2.087.904 3.269a6.295 6.295 0 01-1.867 4.547z" fill="#E3DAD7"/><path d="M73.672 71.497l-2.28 2.283 2.28 2.283 2.28-2.283-2.28-2.283zm4.561 4.567l-2.28 2.283 2.28 2.282 2.28-2.282-2.28-2.283zm6.839 6.849l-2.28-2.283-2.279 2.283 2.28 2.283 2.28-2.283z" fill="#E3DAD7"/></svg>