<svg width="100" height="100" fill="none" xmlns="http://www.w3.org/2000/svg"><path d="M98.333 15.833h-5V12.5c0-.92-.746-1.667-1.666-1.667h-35A8.303 8.303 0 0050 14.218a8.303 8.303 0 00-6.667-3.385h-35c-.92 0-1.666.747-1.666 1.667v3.333h-5C.747 15.833 0 16.58 0 17.5v70c0 .92.746 1.667 1.667 1.667h96.666c.92 0 1.667-.746 1.667-1.667v-70c0-.92-.746-1.667-1.667-1.667zm-50 70h-45V19.167h3.334V77.5c0 .92.746 1.667 1.666 1.667h35a4.982 4.982 0 014.845 3.785c.108.396.16.805.155 1.215v1.666zm0-8.333c-.188-.142-.396-.253-.596-.378-.159-.097-.305-.209-.47-.295a7.838 7.838 0 00-.744-.334c-.166-.068-.318-.151-.486-.208a8.16 8.16 0 00-.884-.227c-.146-.033-.286-.083-.435-.108a8.272 8.272 0 00-1.385-.117H10V14.167h33.333a5 5 0 015 5V77.5zm3.334-58.333a5 5 0 015-5H90v61.666H56.667c-.465 0-.928.04-1.385.117-.167.027-.314.082-.472.117-.285.057-.566.13-.843.216-.2.069-.385.167-.579.249-.193.081-.438.166-.646.283-.209.117-.415.26-.622.393-.15.099-.31.18-.453.287V19.167zm45 66.666h-45v-1.666a4.518 4.518 0 01.166-1.257 4.979 4.979 0 014.834-3.743h35c.92 0 1.666-.746 1.666-1.667V19.167h3.334v66.666z" fill="#E3DAD7"/><path d="M93.333 80.833H56.667v3.334h36.666v-3.334zm-50 0H6.667v3.334h36.666v-3.334zm-25-58.333H15v3.333h3.333V22.5zm23.334 0h-20v3.333h20V22.5zm0 8.333H15v3.334h26.667v-3.334zm0 8.334H15V42.5h26.667v-3.333zm-20 8.333H15v3.333h6.667V47.5zm20 0H25v3.333h16.667V47.5zm0 8.333H15v3.334h26.667v-3.334zm0 8.334H15V67.5h26.667v-3.333zm20-41.667h-3.334v3.333h3.334V22.5zM85 22.5H65v3.333h20V22.5zm0 8.333H58.333v3.334H85v-3.334zm0 8.334H58.333V42.5H85v-3.333zm0 16.666H58.333v3.334H85v-3.334zm0 8.334H58.333V67.5H85v-3.333zM85 47.5H58.333v3.333H85V47.5z" fill="#E3DAD7"/></svg>