<svg width="100" height="100" fill="none" xmlns="http://www.w3.org/2000/svg"><g fill="#E3DAD7"><path d="M95 13.333H71.05a1.667 1.667 0 100 3.333H95c.92 0 1.666.747 1.666 1.667v45H3.334v-45c0-.92.746-1.667 1.667-1.667h23.216a1.667 1.667 0 100-3.333H5a5 5 0 00-5 5V75a5 5 0 005 5h33.033l-2.778 16.666h-3.589a1.667 1.667 0 000 3.334h36.667a1.667 1.667 0 100-3.334h-3.588L61.966 80H95a5 5 0 005-5V18.333a5 5 0 00-5-5zM61.364 96.667h-22.73L41.411 80h17.177l2.777 16.666zm33.634-20H5c-.92 0-1.667-.746-1.667-1.667v-8.333h93.334V75c0 .92-.747 1.667-1.668 1.667z"/><path d="M51.667 70h-3.333a1.667 1.667 0 100 3.334h3.333a1.667 1.667 0 000-3.334zm-15-16.667h26.666A3.333 3.333 0 0066.666 50V18.333c0-.92-.746-1.667-1.666-1.667h-5V8.334A8.343 8.343 0 0051.667 0h-3.333A8.343 8.343 0 0040 8.334v8.332h-5c-.92 0-1.666.747-1.666 1.667V50a3.333 3.333 0 003.333 3.333zm0-3.333V36.667h26.666V50H36.667zm0-18.333h26.666v1.667H36.667v-1.667zm6.666-23.333a5 5 0 015-5h3.334a5 5 0 015 5v8.332H43.333V8.334zM40 20v5a1.667 1.667 0 103.334 0v-5h13.333v5A1.667 1.667 0 1060 25v-5h3.333v8.333H36.667v-8.332H40z"/></g></svg>