<svg width="170" height="65" fill="none" xmlns="http://www.w3.org/2000/svg"><path fill-rule="evenodd" clip-rule="evenodd" d="M61.06 3.94H3.94v57.12h57.12V3.94zM0 0v65h65V0H0z" fill="#fff"/><path d="M36.195 50.499a3.62 3.62 0 11-7.24 0 3.62 3.62 0 017.24 0zm9.38 0a3.62 3.62 0 11-7.24 0 3.62 3.62 0 017.24 0zm9.379 0a3.62 3.62 0 11-7.24 0 3.62 3.62 0 017.24 0zm40.428-31.467c1.01-.861 1.502-1.994 1.502-3.373 0-1.453-.517-2.634-1.576-3.545-1.034-.911-2.314-1.38-3.865-1.38h-6.746V27.97h7.238c1.576 0 2.906-.468 3.964-1.404 1.06-.935 1.6-2.142 1.6-3.644 0-1.698-.713-2.979-2.117-3.89zm-3.939-4.604c.886 0 1.502.64 1.502 1.527 0 .886-.616 1.526-1.502 1.526h-2.807v-3.053h2.807zm-2.807 9.848v-3.299h3.3c.984 0 1.624.665 1.624 1.65 0 .985-.64 1.65-1.625 1.65h-3.299zm23.966-.984a7.19 7.19 0 00.148-1.478c0-1.846-.591-3.397-1.798-4.628-1.182-1.256-2.659-1.872-4.456-1.872-1.921 0-3.496.616-4.727 1.872-1.207 1.23-1.823 2.782-1.823 4.628 0 1.872.616 3.423 1.847 4.654 1.256 1.23 2.905 1.846 4.974 1.846 2.363 0 4.161-.837 5.367-2.536l-2.955-1.698c-.566.615-1.354.935-2.363.935-1.551 0-2.536-.566-2.955-1.723h8.741zm-8.815-2.758c.37-1.305 1.256-1.945 2.684-1.945 1.379 0 2.241.64 2.61 1.945h-5.294zm20.859-3.718c-.861-1.01-2.092-1.502-3.668-1.502-1.625 0-3.004.64-4.161 1.896-1.157 1.256-1.724 2.782-1.724 4.604s.567 3.373 1.724 4.63c1.157 1.255 2.536 1.87 4.161 1.87 1.576 0 2.807-.492 3.668-1.502v1.158h3.694V15.66h-3.694v1.156zm-5.047 7.19c-.542-.542-.812-1.28-.812-2.192 0-.91.27-1.65.812-2.19.542-.543 1.256-.813 2.117-.813.862 0 1.576.27 2.118.812.542.542.812 1.28.812 2.191 0 .911-.27 1.65-.812 2.192-.542.541-1.256.812-2.118.812-.861 0-1.575-.27-2.117-.812zm20.388-1.626c0 1.675-.887 2.537-2.29 2.537-1.256 0-2.142-.788-2.142-2.24v-7.018h-3.693v7.559c0 1.6.443 2.831 1.305 3.742.886.911 1.994 1.354 3.299 1.354 1.6 0 2.782-.492 3.521-1.502v1.158h3.693V15.66h-3.693v6.72zm14.6-6.72h-2.536v-3.448l-3.693 1.108v2.34h-1.97v3.545h1.97v4.358c0 1.797.443 3.028 1.354 3.742.911.69 2.536.91 4.875.665v-3.35c-1.797.099-2.536-.074-2.536-1.058v-4.358h2.536v-3.546zm8.758 7.533l-2.733-7.534h-4.063l4.9 11.744c-.566 1.502-1.379 2.044-3.078 2.044v3.447c3.472.172 5.639-1.428 7.017-5.294l4.211-11.94h-3.94l-2.314 7.533zM95.382 44.897c1.01-.862 1.502-1.994 1.502-3.373 0-1.453-.517-2.635-1.576-3.546-1.034-.91-2.314-1.378-3.865-1.378h-6.746v17.234h7.238c1.576 0 2.906-.467 3.964-1.403 1.06-.936 1.6-2.142 1.6-3.644 0-1.699-.713-2.98-2.117-3.89zm-3.939-4.604c.886 0 1.502.64 1.502 1.526 0 .887-.616 1.527-1.502 1.527h-2.807v-3.053h2.807zm-2.807 9.848v-3.299h3.3c.984 0 1.624.665 1.624 1.65 0 .985-.64 1.65-1.625 1.65h-3.299zm15.379 3.693V35.861h-3.693v17.973h3.693zm12.625-11.153c-.862-1.01-2.093-1.502-3.669-1.502-1.625 0-3.004.64-4.161 1.896-1.157 1.256-1.723 2.782-1.723 4.604s.566 3.373 1.723 4.629c1.157 1.256 2.536 1.871 4.161 1.871 1.576 0 2.807-.492 3.669-1.502v1.157h3.693v-12.31h-3.693v1.157zm-5.048 7.19c-.541-.542-.812-1.28-.812-2.192 0-.91.271-1.65.812-2.191.542-.542 1.256-.813 2.118-.813.862 0 1.576.271 2.117.813.542.541.813 1.28.813 2.191 0 .911-.271 1.65-.813 2.191-.541.542-1.255.813-2.117.813-.862 0-1.576-.27-2.118-.813zm21.668-5.885v-2.462h-9.356v3.447h4.407l-4.653 6.401v2.462h9.848v-3.447h-4.899l4.653-6.401zm14.732 5.17a7.19 7.19 0 00.148-1.477c0-1.846-.591-3.398-1.798-4.629-1.181-1.255-2.659-1.87-4.456-1.87-1.921 0-3.496.615-4.727 1.87-1.207 1.231-1.822 2.783-1.822 4.63 0 1.87.615 3.422 1.846 4.653 1.256 1.23 2.906 1.846 4.974 1.846 2.363 0 4.161-.837 5.367-2.536l-2.954-1.699c-.567.616-1.355.936-2.364.936-1.551 0-2.536-.566-2.955-1.724h8.741zm-8.814-2.757c.369-1.305 1.255-1.945 2.683-1.945 1.379 0 2.241.64 2.61 1.945h-5.293z" fill="#fff"/></svg>